<?xml version="1.0" encoding="utf-8"?>
<!-- Generator: Adobe Illustrator 16.0.0, SVG Export Plug-In . SVG Version: 6.00 Build 0)  -->
<!DOCTYPE svg PUBLIC "-//W3C//DTD SVG 1.1//EN" "http://www.w3.org/Graphics/SVG/1.1/DTD/svg11.dtd">
<svg version="1.1" id="Layer_1" xmlns="http://www.w3.org/2000/svg" xmlns:xlink="http://www.w3.org/1999/xlink" x="0px" y="0px"
	 width="461.759px" height="91.701px" viewBox="0 0 461.759 91.701" enable-background="new 0 0 461.759 91.701"
	 xml:space="preserve">
<g>
	<g>
		<g>
			<path fill="#00AEEF" d="M32.483,76.454c-3.161,1.066-5.878,3.383-7.364,6.628l-1.102,2.662c-0.827,1.993-0.728,4.133,0.088,5.957
				c5.353-3.433,10.822-4.407,15.79-4.134C36.808,84.798,34.087,81.174,32.483,76.454z"/>
			<path fill="#00AEEF" d="M70.787,77.931C70.68,66.113,56.632,46.056,52.803,29.213c-1.035-4.545-1.336-9.302-0.442-14.412
				c1.184-5.467,3.918-9.842,7.286-13.833c-0.58,0.327-1.12,0.726-1.605,1.202V2.167h-0.003L45.883,14.26
				c-5.196,5.302-6.506,9.112-7.377,11.646c-0.758,2.774-2.539,9.268,2.376,20.786c3.689,8.642,8.753,16.474,13.847,24.284
				c5.022,8.499,4.117,10.788,3.292,12.763l2.345,0.977c0.982,0.408,2.003,0.586,3.003,0.567c0.103,0,0.207-0.002,0.313-0.007l0,0
				c2.792-0.16,5.385-1.865,6.533-4.617C70.587,79.766,70.765,78.842,70.787,77.931z"/>
			<path fill="#662D91" d="M54.729,70.976c-4.943-7.58-9.854-15.177-13.509-23.517l-0.007-0.009c0,0,4.319,11.315,6.156,19.77
				l-4.268-1.777c-5.012-2.087-10.765,0.285-12.851,5.298l-5.31,12.741c2.651-6.363,9.959-9.372,16.322-6.724l16.758,6.98
				C58.846,81.764,59.752,79.475,54.729,70.976z"/>
			<path fill="#00AEEF" d="M70.875,7.515L70.87,7.512c-0.003-2.941-1.745-5.734-4.635-6.939c-0.566-0.235-1.173-0.396-1.756-0.487
				c-0.439,1.212-0.773,2.198-1.016,3.634c-0.296,1.75-0.485,3.58-0.548,5.452c0.03,7.712,3.225,16,7.918,26.728
				C70.843,32.406,70.875,7.862,70.875,7.515z"/>
			<path fill="#00AEEF" d="M25.262,70.093l-14.623-6.091c-3.841-1.6-5.657-6.01-4.058-9.851c0.343-0.821,0.822-1.542,1.391-2.165
				c0.104-0.089,19.45-19.367,19.45-19.367S13.257,48.208,25.262,70.093z"/>
			<path fill="#662D91" d="M34.259,29.443c-2.198-0.054-4.415,0.75-6.088,2.431l-0.803,0.803c-0.471,0.542-4.091,4.855-5.901,11.796
				c5.826-0.561,10.944,0.694,15.275,2.758C34.362,42.3,33.032,36.331,34.259,29.443z"/>
			<path fill="#662D91" d="M52.372,14.807c-0.038,0.205-0.076,0.409-0.11,0.616c-0.77,4.872-0.45,9.429,0.541,13.791
				c0.659,2.899,1.622,5.895,2.763,8.93c0.085,0.188,0.017-0.005-0.287-0.778c-2.521-6.444,3.694-20.9,8.031-23.446
				c-0.25-1.615-0.388-3.195-0.394-4.748C62.979,7.3,63.168,5.47,63.464,3.72c0.242-1.437,0.576-2.422,1.016-3.634
				c-1.686-0.256-3.382,0.074-4.825,0.886C56.288,4.964,53.554,9.339,52.372,14.807z"/>
		</g>
		<g>
			<path fill="#00AEEF" d="M142.454,78.304c0,1.744-1.258,3.004-3.002,3.004h-6.294c-1.648,0-2.906-1.26-2.906-3.004V62.169H105.75
				v16.135c0,1.744-1.259,3.004-2.905,3.004h-6.293c-1.744,0-3.001-1.26-3.001-3.004V32.982c0-14.622,12.393-20.145,24.499-20.145
				c11.236,0,24.405,4.939,24.405,20.145V78.304z M105.75,49.968h24.502V32.982c0-6.295-6.778-7.941-12.203-7.941
				c-5.617,0-12.299,1.646-12.299,7.941V49.968z"/>
			<path fill="#00AEEF" d="M224.645,24.265c0,1.647-1.259,2.906-2.904,2.906h-6.198c-1.646,0-2.906-1.259-2.906-2.906v-7.165
				c0-1.649,1.26-2.906,2.906-2.906h6.198c1.645,0,2.904,1.257,2.904,2.906V24.265z M224.645,78.402
				c0,1.646-1.259,2.906-2.904,2.906h-6.198c-1.646,0-2.906-1.26-2.906-2.906V35.791c0-1.646,1.26-2.907,2.906-2.907h6.198
				c1.645,0,2.904,1.26,2.904,2.907V78.402z"/>
			<path fill="#00AEEF" d="M160.886,78.402c0,1.646-1.258,2.906-2.904,2.906h-6.198c-1.644,0-2.905-1.26-2.905-2.906V16.323
				c0-1.645,1.261-2.901,2.905-2.901h6.198c1.646,0,2.904,1.257,2.904,2.901V78.402z"/>
			<path fill="#00AEEF" d="M187.197,32.884c-2.325,0-4.938,0.1-7.941,0.582V16.323c0-0.822-0.316-1.548-0.836-2.069
				c-0.52-0.519-1.245-0.833-2.071-0.833l0,0h-6.197c-1.438,0-2.583,0.96-2.849,2.307c-0.038,0.191-0.055,0.39-0.055,0.595v58.98
				v3.099c0,1.646,1.257,2.906,2.904,2.906h1.963c0,0,1.809,0,4.234,0c3.558,0,8.431,0,10.848,0c9.005,0,19.95-3.585,19.95-15.787
				V49.059C207.147,37.727,196.883,32.884,187.197,32.884z M195.141,65.427c0,3.87-4.456,4.839-8.523,4.839c-2.421,0-5.32,0-7.362,0
				V45.474c3.1-0.484,6.101-0.676,7.941-0.676c4.649,0,7.943,1.451,7.943,4.261V65.427z"/>
			<path fill="#662D91" d="M260.233,53.029c-10.461-1.938-22.759-4.454-22.759-19.953c0-15.009,13.17-20.142,24.405-20.142
				c12.009,0,23.922,5.811,24.503,19.372v0.578c0,1.647-1.262,3.004-3.005,3.004h-6.293c-1.648,0-2.906-1.357-2.906-3.004v-0.578
				c-0.483-5.716-7.067-7.167-12.299-7.167c-5.52,0-12.2,1.645-12.2,7.937c0,6.201,6.775,7.363,14.232,8.816
				c10.557,1.938,22.471,4.069,22.471,19.563c0,15.206-13.174,20.145-24.503,20.145c-12.011,0-24.405-5.521-24.405-20.145v-1.162
				c0-1.646,1.257-3.001,3.001-3.001h6.295c1.647,0,2.909,1.354,2.909,3.001v1.162c0,6.296,6.68,7.941,12.2,7.941
				c5.518,0,12.299-1.646,12.299-7.941C274.178,55.742,267.206,54.384,260.233,53.029z"/>
			<path fill="#662D91" d="M345.202,78.402V48.575c-0.291-3.876-3.971-4.842-8.039-4.842c-1.744,0-4.454,0.481-7.262,1.257
				c0.288,1.162,0.383,2.132,0.383,3.487v29.925c0,1.646-1.258,2.906-2.903,2.906h-6.197c-1.648,0-2.906-1.26-2.906-2.906V48.575
				c-0.292-3.876-3.971-4.842-8.136-4.842c-2.614,0-4.938,0.388-6.972,0.773v33.896c0,1.646-1.259,2.906-2.905,2.906h-6.198
				c-1.648,0-2.906-1.26-2.906-2.906V38.695c0-1.838,1.258-3.291,2.614-3.678h-0.094c5.712-2.132,13.073-2.71,17.042-2.71
				c3.875,0,8.33,1.063,12.01,2.903c5.808-2.519,12.009-2.903,14.914-2.903c9.009,0,19.564,3.97,19.564,16.171v29.925
				c0,1.646-1.259,2.906-2.907,2.906h-6.196C346.461,81.308,345.202,80.048,345.202,78.402z"/>
			<path fill="#662D91" d="M430.52,32.982c1.453,0.291,2.713,1.55,2.713,3.1v5.616c0,1.548-1.551,2.616-3.001,2.616
				c-1.163-0.1-2.714-0.1-3.778-0.1c-2.711,0-5.229,0.389-7.36,0.775v33.412c0,1.646-1.26,2.906-2.905,2.906h-6.198
				c-1.644,0-2.905-1.26-2.905-2.906V38.599c0-1.839,1.261-3.292,2.617-3.677c5.712-1.94,13.268-2.232,17.334-2.232
				C428.199,32.69,429.553,32.788,430.52,32.982z"/>
			<path fill="#662D91" d="M436.457,65.715V44.893V32.884v-8.329c0-1.647,1.256-2.807,2.711-3.098l6.199-1.26
				c1.741-0.387,3.098,0.678,3.098,2.907v9.78h5.324c1.646,0,2.907,1.26,2.907,2.907v6.198c0,1.647-1.261,2.904-2.907,2.904h-5.324
				v20.725c0,3.392,1.355,4.357,4.839,4.357h1.551c1.648,0,2.904,1.359,2.904,3.003v5.424c0,1.646-1.256,2.906-2.904,2.906h-1.551
				C444.106,81.308,436.457,79.467,436.457,65.715z"/>
			<path fill="#662D91" d="M382.306,32.4c-3.291,0-8.619,0.484-13.364,1.647c-1.552,0.388-2.614,1.842-2.614,3.292v6.007
				c0,2.226,2.419,2.711,3.682,2.323c3.388-0.679,7.938-1.548,11.911-1.548c4.453,0,8.327,0.969,8.327,3.97v1.453
				c-3.098-0.583-5.909-0.775-7.942-0.775c-9.005,0-19.95,3.971-19.95,16.172v1.356c0,12.302,10.945,15.399,19.95,15.399
				c2.239,0,17.047,0,17.047,0c1.647,0,2.905-1.259,2.905-2.903V47.896C402.257,33.756,391.313,32.4,382.306,32.4z M374.463,66.103
				v-0.967c0.29-3.875,4.26-4.844,8.328-4.844c2.517,0,5.422,0.484,7.456,0.775l0.001,9.104c0,0-4.747,0-7.457,0
				C378.724,70.171,374.753,69.881,374.463,66.103z"/>
		</g>
	</g>
</g>
</svg>
